<svg width="167" height="127" viewBox="0 0 167 127" fill="none" xmlns="http://www.w3.org/2000/svg">
<g filter="url(#filter0_d_5207_2)">
<circle cx="60.5" cy="20.5" r="96.5" fill="white"/>
</g>
<path d="M93.2188 85C112.439 85 128 69.5209 128 50.4581H93.2188V85Z" fill="#A1D214"/>
<path d="M40.3201 39.8317V54.9625C40.3201 56.4805 39.1925 57.6004 37.689 57.6004C36.1855 57.6004 35.0578 56.4805 35.0578 54.9625V41.8973H31.1738C31.0735 49.9355 29.7454 54.191 26.5881 56.4805C25.5356 57.252 24.5583 57.6004 23.4056 57.6004C22.0023 57.6004 21.0251 56.6796 21.0251 55.3109C21.0251 54.191 21.6265 53.3698 22.6789 52.9965C25.3101 52.0508 26.1871 49.1391 26.1871 41.3747V39.782C26.1871 38.2639 27.3148 37.144 28.8433 37.144H37.6639C39.1925 37.1938 40.3201 38.3137 40.3201 39.8317Z" fill="black"/>
<path d="M64.5518 55.1118C64.5518 56.5303 63.4492 57.6004 61.9457 57.6004C60.818 57.6004 59.9661 56.9534 59.4649 55.7091L59.0389 54.639H51.822L51.396 55.7091C50.8949 56.9534 50.0429 57.6004 48.9152 57.6004C47.4117 57.6004 46.3091 56.5303 46.3091 55.1118C46.3091 54.7385 46.4094 54.2906 46.5848 53.8426L52.9246 38.5626C53.3757 37.4427 54.2527 36.8206 55.4305 36.8206C56.6082 36.8206 57.4853 37.4178 57.9363 38.5626L64.2761 53.8426C64.4766 54.2906 64.5518 54.7634 64.5518 55.1118ZM53.3757 50.483H57.4853L55.4305 44.6099L53.3757 50.483Z" fill="black"/>
<path d="M88.8335 39.4585V54.9625C88.8335 56.4805 87.7058 57.6004 86.2023 57.6004C84.6988 57.6004 83.5712 56.4805 83.5712 54.9625V46.327L75.4522 56.4805C74.8508 57.252 74.099 57.6004 73.2471 57.6004C71.7686 57.6004 70.6159 56.4557 70.6159 54.9625V39.4585C70.6159 37.9404 71.7435 36.8205 73.2471 36.8205C74.7506 36.8205 75.8782 37.9404 75.8782 39.4585V48.293L83.5211 38.463C84.1976 37.6169 84.799 36.7957 86.2524 36.7957C87.7309 36.8205 88.8335 37.9653 88.8335 39.4585Z" fill="black"/>
<path d="M116.423 39.5331V54.9874C116.423 56.5055 115.295 57.6253 113.792 57.6253C112.288 57.6253 111.161 56.5055 111.161 54.9874V47.9695L108.53 52.1255C107.803 53.2703 107.126 53.7431 106.149 53.7431C105.172 53.7431 104.495 53.2951 103.768 52.1255L101.137 47.9695V54.9874C101.137 56.5055 100.01 57.6253 98.5061 57.6253C97.0026 57.6253 95.8749 56.5055 95.8749 54.9874V39.5331C95.8749 37.9902 96.9775 36.8206 98.5061 36.8206C99.5836 36.8206 100.31 37.3432 101.162 38.7368L106.149 46.7003L111.136 38.7368C111.988 37.3432 112.739 36.8206 113.792 36.8206C115.32 36.8206 116.423 37.9653 116.423 39.5331Z" fill="black"/>
<path d="M67.4585 14C67.4585 14 67.1328 28.7823 80.7646 33.0379C80.7897 33.0379 84.1225 22.0382 67.4585 14Z" fill="black"/>
<path d="M71.8939 28.1104C73.7232 30.2506 76.2791 32.142 79.7623 33.3365C71.8438 35.4767 67.0325 28.3593 67.0325 28.3593C68.8869 28.0607 70.4906 27.986 71.8939 28.1104Z" fill="black"/>
<path d="M27.2415 68.445C27.2415 67.0799 26.2049 66.2842 24.4967 66.2404V65.7294H24.139V66.2404C22.4308 66.2769 21.3942 67.0799 21.3942 68.445C21.3942 69.8028 22.4308 70.6058 24.139 70.6423V71.1606H24.4967V70.6423C26.2049 70.6058 27.2415 69.8028 27.2415 68.445ZM24.4967 70.3357V66.547C25.9859 66.5908 26.8765 67.2697 26.8765 68.4377C26.8765 69.613 25.9859 70.2846 24.4967 70.3357ZM21.7592 68.445C21.7592 67.2624 22.6425 66.5981 24.139 66.547V70.3357C22.6571 70.2846 21.7592 69.6203 21.7592 68.445ZM34.0391 65.89H32.2068V71H32.5791V69.3283H34.0391C35.3239 69.3283 36.0977 68.6859 36.0977 67.6128C36.0977 66.5324 35.3239 65.89 34.0391 65.89ZM34.0391 68.9925H32.5791V66.2258H34.0391C35.1341 66.2258 35.7181 66.7295 35.7181 67.6128C35.7181 68.4888 35.1341 68.9925 34.0391 68.9925ZM41.312 70.6642V68.5691H44.0349V68.2406H41.312V66.2258H44.3561V65.89H40.9397V71H44.4656V70.6642H41.312ZM55.126 65.89V70.6642H52.6148V65.89H52.2425V70.6642H49.7313V65.89H49.359V71H55.4983V65.89H55.126ZM71.7087 71L71.7014 65.89H71.3948L69.1099 69.8393L66.825 65.89H66.5111V71H66.8761V66.6419L69.015 70.3211H69.1975L71.3364 66.6273L71.3437 71H71.7087ZM81.0882 71H81.4897L79.1391 65.89H78.7668L76.4162 71H76.8177L77.4674 69.5619H80.4312L81.0882 71ZM77.6134 69.248L78.9493 66.2988L80.2925 69.248H77.6134ZM88.0334 65.89H86.2011V71H86.5734V69.3283H88.0334C89.3182 69.3283 90.092 68.6859 90.092 67.6128C90.092 66.5324 89.3182 65.89 88.0334 65.89ZM88.0334 68.9925H86.5734V66.2258H88.0334C89.1284 66.2258 89.7124 66.7295 89.7124 67.6128C89.7124 68.4888 89.1284 68.9925 88.0334 68.9925ZM98.4819 71H98.9199L96.8321 68.3793L98.7885 65.89H98.3724L96.5401 68.2406H95.3064V65.89H94.9341V71H95.3064V68.5764H96.5328L98.4819 71ZM103.854 70.6642V68.5691H106.577V68.2406H103.854V66.2258H106.898V65.89H103.482V71H107.008V70.6642H103.854ZM115.106 65.89H111.054V66.2258H112.894V71H113.266V66.2258H115.106V65.89Z" fill="black"/>
<defs>
<filter id="filter0_d_5207_2" x="-46" y="-86" width="213" height="213" filterUnits="userSpaceOnUse" color-interpolation-filters="sRGB">
<feFlood flood-opacity="0" result="BackgroundImageFix"/>
<feColorMatrix in="SourceAlpha" type="matrix" values="0 0 0 0 0 0 0 0 0 0 0 0 0 0 0 0 0 0 127 0" result="hardAlpha"/>
<feOffset/>
<feGaussianBlur stdDeviation="5"/>
<feColorMatrix type="matrix" values="0 0 0 0 0 0 0 0 0 0 0 0 0 0 0 0 0 0 0.1 0"/>
<feBlend mode="normal" in2="BackgroundImageFix" result="effect1_dropShadow_5207_2"/>
<feBlend mode="normal" in="SourceGraphic" in2="effect1_dropShadow_5207_2" result="shape"/>
</filter>
</defs>
</svg>
