<svg width="155" height="91" viewBox="0 0 155 91" fill="none" xmlns="http://www.w3.org/2000/svg">
<g filter="url(#filter0_d_5532_2)">
<circle cx="77.5" cy="13.5" r="67.5" fill="white"/>
</g>
<path d="M102.219 62C121.439 62 137 46.5209 137 27.4581H102.219V62Z" fill="#A1D214"/>
<path d="M49.3201 16.8317V31.9625C49.3201 33.4805 48.1925 34.6004 46.689 34.6004C45.1854 34.6004 44.0578 33.4805 44.0578 31.9625V18.8973H40.1737C40.0735 26.9355 38.7454 31.191 35.588 33.4805C34.5356 34.252 33.5583 34.6004 32.4056 34.6004C31.0023 34.6004 30.025 33.6796 30.025 32.3109C30.025 31.191 30.6264 30.3698 31.6789 29.9965C34.31 29.0508 35.1871 26.1391 35.1871 18.3747V16.782C35.1871 15.2639 36.3147 14.144 37.8433 14.144H46.6639C48.1925 14.1938 49.3201 15.3137 49.3201 16.8317Z" fill="black"/>
<path d="M73.5517 32.1118C73.5517 33.5303 72.4491 34.6004 70.9456 34.6004C69.818 34.6004 68.966 33.9534 68.4648 32.7091L68.0388 31.639H60.822L60.396 32.7091C59.8948 33.9534 59.0428 34.6004 57.9152 34.6004C56.4117 34.6004 55.3091 33.5303 55.3091 32.1118C55.3091 31.7385 55.4093 31.2906 55.5847 30.8426L61.9245 15.5626C62.3756 14.4427 63.2526 13.8206 64.4304 13.8206C65.6081 13.8206 66.4852 14.4178 66.9362 15.5626L73.2761 30.8426C73.4765 31.2906 73.5517 31.7634 73.5517 32.1118ZM62.3756 27.483H66.4852L64.4304 21.6099L62.3756 27.483Z" fill="black"/>
<path d="M97.8334 16.4585V31.9625C97.8334 33.4805 96.7058 34.6004 95.2023 34.6004C93.6987 34.6004 92.5711 33.4805 92.5711 31.9625V23.327L84.4521 33.4805C83.8507 34.252 83.099 34.6004 82.247 34.6004C80.7685 34.6004 79.6158 33.4557 79.6158 31.9625V16.4585C79.6158 14.9404 80.7435 13.8205 82.247 13.8205C83.7505 13.8205 84.8781 14.9404 84.8781 16.4585V25.293L92.521 15.463C93.1976 14.6169 93.799 13.7957 95.2524 13.7957C96.7308 13.8205 97.8334 14.9653 97.8334 16.4585Z" fill="black"/>
<path d="M125.423 16.5331V31.9874C125.423 33.5055 124.295 34.6253 122.792 34.6253C121.288 34.6253 120.161 33.5055 120.161 31.9874V24.9695L117.529 29.1255C116.803 30.2703 116.126 30.7431 115.149 30.7431C114.172 30.7431 113.495 30.2951 112.768 29.1255L110.137 24.9695V31.9874C110.137 33.5055 109.01 34.6253 107.506 34.6253C106.003 34.6253 104.875 33.5055 104.875 31.9874V16.5331C104.875 14.9902 105.977 13.8206 107.506 13.8206C108.584 13.8206 109.31 14.3432 110.162 15.7368L115.149 23.7003L120.136 15.7368C120.988 14.3432 121.739 13.8206 122.792 13.8206C124.32 13.8206 125.423 14.9653 125.423 16.5331Z" fill="black"/>
<path d="M76.4586 -9C76.4586 -9 76.1328 5.78234 89.7647 10.0379C89.7897 10.0379 93.1225 -0.961794 76.4586 -9Z" fill="black"/>
<path d="M80.8939 5.11045C82.7232 7.25065 85.2792 9.14199 88.7623 10.3365C80.8438 12.4767 76.0326 5.35931 76.0326 5.35931C77.8869 5.06067 79.4907 4.98601 80.8939 5.11045Z" fill="black"/>
<path d="M36.2415 45.445C36.2415 44.0799 35.2049 43.2842 33.4967 43.2404V42.7294H33.139V43.2404C31.4308 43.2769 30.3942 44.0799 30.3942 45.445C30.3942 46.8028 31.4308 47.6058 33.139 47.6423V48.1606H33.4967V47.6423C35.2049 47.6058 36.2415 46.8028 36.2415 45.445ZM33.4967 47.3357V43.547C34.9859 43.5908 35.8765 44.2697 35.8765 45.4377C35.8765 46.613 34.9859 47.2846 33.4967 47.3357ZM30.7592 45.445C30.7592 44.2624 31.6425 43.5981 33.139 43.547V47.3357C31.6571 47.2846 30.7592 46.6203 30.7592 45.445ZM43.0391 42.89H41.2068V48H41.5791V46.3283H43.0391C44.3239 46.3283 45.0977 45.6859 45.0977 44.6128C45.0977 43.5324 44.3239 42.89 43.0391 42.89ZM43.0391 45.9925H41.5791V43.2258H43.0391C44.1341 43.2258 44.7181 43.7295 44.7181 44.6128C44.7181 45.4888 44.1341 45.9925 43.0391 45.9925ZM50.312 47.6642V45.5691H53.0349V45.2406H50.312V43.2258H53.3561V42.89H49.9397V48H53.4656V47.6642H50.312ZM64.126 42.89V47.6642H61.6148V42.89H61.2425V47.6642H58.7313V42.89H58.359V48H64.4983V42.89H64.126ZM80.7087 48L80.7014 42.89H80.3948L78.1099 46.8393L75.825 42.89H75.5111V48H75.8761V43.6419L78.015 47.3211H78.1975L80.3364 43.6273L80.3437 48H80.7087ZM90.0882 48H90.4897L88.1391 42.89H87.7668L85.4162 48H85.8177L86.4674 46.5619H89.4312L90.0882 48ZM86.6134 46.248L87.9493 43.2988L89.2925 46.248H86.6134ZM97.0334 42.89H95.2011V48H95.5734V46.3283H97.0334C98.3182 46.3283 99.092 45.6859 99.092 44.6128C99.092 43.5324 98.3182 42.89 97.0334 42.89ZM97.0334 45.9925H95.5734V43.2258H97.0334C98.1284 43.2258 98.7124 43.7295 98.7124 44.6128C98.7124 45.4888 98.1284 45.9925 97.0334 45.9925ZM107.482 48H107.92L105.832 45.3793L107.788 42.89H107.372L105.54 45.2406H104.306V42.89H103.934V48H104.306V45.5764H105.533L107.482 48ZM112.854 47.6642V45.5691H115.577V45.2406H112.854V43.2258H115.898V42.89H112.482V48H116.008V47.6642H112.854ZM124.106 42.89H120.054V43.2258H121.894V48H122.266V43.2258H124.106V42.89Z" fill="black"/>
<defs>
<filter id="filter0_d_5532_2" x="0" y="-64" width="155" height="155" filterUnits="userSpaceOnUse" color-interpolation-filters="sRGB">
<feFlood flood-opacity="0" result="BackgroundImageFix"/>
<feColorMatrix in="SourceAlpha" type="matrix" values="0 0 0 0 0 0 0 0 0 0 0 0 0 0 0 0 0 0 127 0" result="hardAlpha"/>
<feOffset/>
<feGaussianBlur stdDeviation="5"/>
<feColorMatrix type="matrix" values="0 0 0 0 0 0 0 0 0 0 0 0 0 0 0 0 0 0 0.1 0"/>
<feBlend mode="normal" in2="BackgroundImageFix" result="effect1_dropShadow_5532_2"/>
<feBlend mode="normal" in="SourceGraphic" in2="effect1_dropShadow_5532_2" result="shape"/>
</filter>
</defs>
</svg>
