<svg width="45" height="45" viewBox="0 0 45 45" fill="none" xmlns="http://www.w3.org/2000/svg">
<rect width="45" height="45" rx="10" fill="#FFC709"/>
<path d="M18.02 23.56C20.06 23.56 21.48 22.08 21.48 19.7C21.48 17.32 20.06 15.84 18.02 15.84C15.98 15.84 14.54 17.34 14.54 19.7C14.54 22.06 15.98 23.56 18.02 23.56ZM16.8 30H19.18L28.74 16H26.36L16.8 30ZM18.02 21.92C17.16 21.92 16.56 21.18 16.56 19.7C16.56 18.22 17.16 17.48 18.02 17.48C18.9 17.48 19.48 18.2 19.48 19.7C19.48 21.2 18.9 21.92 18.02 21.92ZM27.52 30.16C29.56 30.16 31 28.66 31 26.3C31 23.94 29.56 22.44 27.52 22.44C25.5 22.44 24.06 23.94 24.06 26.3C24.06 28.66 25.5 30.16 27.52 30.16ZM27.52 28.52C26.66 28.52 26.06 27.8 26.06 26.3C26.06 24.8 26.66 24.08 27.52 24.08C28.4 24.08 28.98 24.82 28.98 26.3C28.98 27.78 28.4 28.52 27.52 28.52Z" fill="#333333"/>
</svg>
