<?xml version="1.0" encoding="UTF-8"?>
<svg xmlns="http://www.w3.org/2000/svg" xmlns:xlink="http://www.w3.org/1999/xlink" viewBox="0 0 100 100" width="100px" height="100px">
<g id="surface468160">
<path style=" stroke:none;fill-rule:nonzero;fill:rgb(94.509804%,76.862746%,5.882353%);fill-opacity:1;" d="M 7.835938 11.320312 L 16.375 82.015625 C 16.679688 84.519531 18.464844 86.601562 20.90625 87.296875 L 48.304688 95.070312 C 49.414062 95.386719 50.585938 95.394531 51.699219 95.09375 L 80.515625 87.285156 C 83.039062 86.601562 84.875 84.445312 85.132812 81.863281 L 92.242188 11.257812 C 92.425781 9.414062 90.96875 7.8125 89.101562 7.8125 L 10.96875 7.8125 C 9.078125 7.8125 7.609375 9.453125 7.835938 11.320312 Z M 7.835938 11.320312 "/>
<path style=" stroke:none;fill-rule:nonzero;fill:rgb(97.647059%,89.019608%,68.235296%);fill-opacity:1;" d="M 89.101562 7.8125 L 50 7.8125 L 50 95.3125 C 50.570312 95.316406 51.144531 95.242188 51.699219 95.09375 L 80.515625 87.285156 C 83.039062 86.601562 84.875 84.445312 85.132812 81.863281 L 92.242188 11.257812 C 92.425781 9.414062 90.96875 7.8125 89.101562 7.8125 Z M 89.101562 7.8125 "/>
<path style=" stroke:none;fill-rule:nonzero;fill:rgb(55.29412%,42.352942%,62.352943%);fill-opacity:1;" d="M 50.039062 96.875 C 49.3125 96.875 48.585938 96.773438 47.878906 96.574219 L 20.480469 88.796875 C 17.425781 87.929688 15.203125 85.34375 14.824219 82.203125 L 6.28125 11.507812 C 6.121094 10.179688 6.539062 8.84375 7.429688 7.839844 C 8.324219 6.828125 9.613281 6.25 10.96875 6.25 L 89.101562 6.25 C 90.4375 6.25 91.714844 6.816406 92.609375 7.804688 C 93.496094 8.785156 93.929688 10.101562 93.796875 11.414062 L 86.6875 82.019531 C 86.363281 85.226562 84.046875 87.949219 80.921875 88.792969 L 52.109375 96.597656 C 51.429688 96.78125 50.734375 96.875 50.039062 96.875 Z M 10.96875 9.375 C 10.5 9.375 10.074219 9.566406 9.769531 9.914062 C 9.46875 10.25 9.332031 10.683594 9.386719 11.132812 L 17.929688 81.828125 C 18.15625 83.714844 19.492188 85.269531 21.335938 85.792969 L 48.734375 93.570312 C 49.570312 93.804688 50.453125 93.8125 51.292969 93.585938 L 80.105469 85.777344 C 81.988281 85.269531 83.386719 83.632812 83.578125 81.707031 L 90.6875 11.101562 C 90.730469 10.660156 90.589844 10.234375 90.292969 9.898438 C 89.984375 9.5625 89.5625 9.375 89.101562 9.375 Z M 10.96875 9.375 "/>
<path style=" stroke:none;fill-rule:nonzero;fill:rgb(55.29412%,42.352942%,62.352943%);fill-opacity:1;" d="M 10.9375 18.75 C 10.074219 18.75 9.375 18.050781 9.375 17.1875 L 9.375 14.0625 C 9.375 13.199219 10.074219 12.5 10.9375 12.5 C 11.800781 12.5 12.5 13.199219 12.5 14.0625 L 12.5 17.1875 C 12.5 18.050781 11.800781 18.75 10.9375 18.75 Z M 18.75 18.75 C 17.886719 18.75 17.1875 18.050781 17.1875 17.1875 L 17.1875 14.0625 C 17.1875 13.199219 17.886719 12.5 18.75 12.5 C 19.613281 12.5 20.3125 13.199219 20.3125 14.0625 L 20.3125 17.1875 C 20.3125 18.050781 19.613281 18.75 18.75 18.75 Z M 26.5625 18.75 C 25.699219 18.75 25 18.050781 25 17.1875 L 25 14.0625 C 25 13.199219 25.699219 12.5 26.5625 12.5 C 27.425781 12.5 28.125 13.199219 28.125 14.0625 L 28.125 17.1875 C 28.125 18.050781 27.425781 18.75 26.5625 18.75 Z M 34.375 18.75 C 33.511719 18.75 32.8125 18.050781 32.8125 17.1875 L 32.8125 14.0625 C 32.8125 13.199219 33.511719 12.5 34.375 12.5 C 35.238281 12.5 35.9375 13.199219 35.9375 14.0625 L 35.9375 17.1875 C 35.9375 18.050781 35.238281 18.75 34.375 18.75 Z M 42.1875 18.75 C 41.324219 18.75 40.625 18.050781 40.625 17.1875 L 40.625 14.0625 C 40.625 13.199219 41.324219 12.5 42.1875 12.5 C 43.050781 12.5 43.75 13.199219 43.75 14.0625 L 43.75 17.1875 C 43.75 18.050781 43.050781 18.75 42.1875 18.75 Z M 50 18.75 C 49.136719 18.75 48.4375 18.050781 48.4375 17.1875 L 48.4375 14.0625 C 48.4375 13.199219 49.136719 12.5 50 12.5 C 50.863281 12.5 51.5625 13.199219 51.5625 14.0625 L 51.5625 17.1875 C 51.5625 18.050781 50.863281 18.75 50 18.75 Z M 57.8125 18.75 C 56.949219 18.75 56.25 18.050781 56.25 17.1875 L 56.25 14.0625 C 56.25 13.199219 56.949219 12.5 57.8125 12.5 C 58.675781 12.5 59.375 13.199219 59.375 14.0625 L 59.375 17.1875 C 59.375 18.050781 58.675781 18.75 57.8125 18.75 Z M 65.625 18.75 C 64.761719 18.75 64.0625 18.050781 64.0625 17.1875 L 64.0625 14.0625 C 64.0625 13.199219 64.761719 12.5 65.625 12.5 C 66.488281 12.5 67.1875 13.199219 67.1875 14.0625 L 67.1875 17.1875 C 67.1875 18.050781 66.488281 18.75 65.625 18.75 Z M 73.4375 18.75 C 72.574219 18.75 71.875 18.050781 71.875 17.1875 L 71.875 14.0625 C 71.875 13.199219 72.574219 12.5 73.4375 12.5 C 74.300781 12.5 75 13.199219 75 14.0625 L 75 17.1875 C 75 18.050781 74.300781 18.75 73.4375 18.75 Z M 81.25 18.75 C 80.386719 18.75 79.6875 18.050781 79.6875 17.1875 L 79.6875 14.0625 C 79.6875 13.199219 80.386719 12.5 81.25 12.5 C 82.113281 12.5 82.8125 13.199219 82.8125 14.0625 L 82.8125 17.1875 C 82.8125 18.050781 82.113281 18.75 81.25 18.75 Z M 89.0625 18.75 C 88.199219 18.75 87.5 18.050781 87.5 17.1875 L 87.5 14.0625 C 87.5 13.199219 88.199219 12.5 89.0625 12.5 C 89.925781 12.5 90.625 13.199219 90.625 14.0625 L 90.625 17.1875 C 90.625 18.050781 89.925781 18.75 89.0625 18.75 Z M 89.0625 18.75 "/>
<path style=" stroke:none;fill-rule:nonzero;fill:rgb(98.039216%,93.725491%,87.058824%);fill-opacity:1;" d="M 73.464844 26.5625 L 26.5625 26.5625 C 25.601562 26.5625 24.871094 27.417969 25.019531 28.367188 L 28.957031 53.367188 C 29.078125 54.128906 29.734375 54.6875 30.5 54.6875 L 60.671875 54.6875 C 61.609375 54.6875 62.335938 55.503906 62.226562 56.433594 L 61.023438 66.601562 L 50.148438 69.917969 L 40.542969 66.664062 L 39.847656 62.257812 C 39.726562 61.496094 39.074219 60.9375 38.304688 60.9375 L 31.976562 60.9375 C 31.019531 60.9375 30.285156 61.796875 30.433594 62.742188 L 32.019531 72.804688 C 32.109375 73.371094 32.503906 73.839844 33.046875 74.023438 L 49.535156 79.609375 C 49.695312 79.660156 49.855469 79.6875 50.019531 79.6875 C 50.167969 79.6875 50.316406 79.664062 50.460938 79.621094 L 68.652344 74.078125 C 69.238281 73.898438 69.664062 73.390625 69.734375 72.785156 L 72.773438 47.058594 C 72.882812 46.128906 72.15625 45.3125 71.222656 45.3125 L 38.515625 45.3125 C 37.746094 45.3125 37.09375 44.753906 36.972656 43.992188 L 35.988281 37.742188 C 35.835938 36.796875 36.570312 35.9375 37.53125 35.9375 L 72.699219 35.9375 C 73.492188 35.9375 74.15625 35.34375 74.25 34.558594 L 74.992188 28.277344 C 75.101562 27.367188 74.386719 26.5625 73.464844 26.5625 Z M 73.464844 26.5625 "/>
<path style=" stroke:none;fill-rule:nonzero;fill:rgb(55.29412%,42.352942%,62.352943%);fill-opacity:1;" d="M 50.023438 81.25 C 49.691406 81.25 49.363281 81.195312 49.046875 81.089844 L 32.546875 75.503906 C 31.453125 75.132812 30.65625 74.195312 30.476562 73.050781 L 28.890625 62.984375 C 28.75 62.082031 29.007812 61.164062 29.601562 60.46875 C 30.195312 59.773438 31.0625 59.375 31.976562 59.375 L 38.304688 59.375 C 39.855469 59.375 41.152344 60.488281 41.394531 62.015625 L 41.941406 65.488281 L 50.175781 68.277344 L 59.59375 65.40625 L 60.671875 56.25 L 30.5 56.25 C 28.953125 56.25 27.65625 55.140625 27.414062 53.609375 L 23.476562 28.609375 C 23.332031 27.707031 23.59375 26.789062 24.1875 26.09375 C 24.78125 25.398438 25.648438 25 26.5625 25 L 73.46875 25 C 74.351562 25 75.195312 25.378906 75.78125 26.039062 C 76.367188 26.699219 76.648438 27.582031 76.542969 28.460938 L 75.800781 34.742188 C 75.617188 36.3125 74.28125 37.5 72.699219 37.5 L 37.53125 37.5 L 38.515625 43.75 L 71.222656 43.75 C 72.117188 43.75 72.96875 44.132812 73.558594 44.800781 C 74.152344 45.464844 74.433594 46.355469 74.328125 47.242188 L 71.289062 72.96875 C 71.140625 74.195312 70.289062 75.214844 69.109375 75.574219 L 50.917969 81.117188 C 50.628906 81.207031 50.328125 81.25 50.023438 81.25 Z M 31.976562 62.5 L 33.5625 72.5625 L 50.039062 78.128906 L 68.199219 72.582031 L 71.222656 46.875 L 38.515625 46.875 C 36.964844 46.875 35.667969 45.765625 35.425781 44.234375 L 34.441406 37.984375 C 34.300781 37.082031 34.558594 36.164062 35.152344 35.46875 C 35.75 34.773438 36.613281 34.375 37.53125 34.375 L 72.699219 34.375 L 73.4375 28.125 L 26.5625 28.125 L 30.5 53.125 L 60.671875 53.125 C 61.566406 53.125 62.417969 53.507812 63.007812 54.175781 C 63.601562 54.839844 63.882812 55.730469 63.777344 56.617188 L 62.574219 66.785156 C 62.5 67.402344 62.070312 67.917969 61.480469 68.097656 L 50.601562 71.414062 C 50.289062 71.507812 49.953125 71.503906 49.648438 71.398438 L 40.042969 68.144531 C 39.492188 67.960938 39.089844 67.484375 39 66.90625 L 38.304688 62.5 Z M 62.5 85.632812 C 61.8125 85.632812 61.179688 85.175781 60.992188 84.480469 C 60.765625 83.648438 61.257812 82.789062 62.089844 82.5625 L 65.214844 81.71875 C 66.050781 81.488281 66.90625 81.984375 67.132812 82.816406 C 67.359375 83.648438 66.867188 84.507812 66.035156 84.734375 L 62.910156 85.578125 C 62.773438 85.617188 62.632812 85.632812 62.5 85.632812 Z M 50.039062 89.066406 L 41.757812 86.71875 C 40.929688 86.484375 40.445312 85.617188 40.683594 84.789062 C 40.917969 83.957031 41.78125 83.472656 42.613281 83.710938 L 50.054688 85.824219 L 55.839844 84.257812 C 56.675781 84.027344 57.53125 84.523438 57.757812 85.359375 C 57.984375 86.191406 57.492188 87.050781 56.660156 87.273438 Z M 50.039062 89.066406 "/>
<path style=" stroke:none;fill-rule:nonzero;fill:rgb(98.039216%,93.725491%,87.058824%);fill-opacity:1;" d="M 78.90625 35.9375 L 80.839844 39.472656 L 84.375 41.40625 L 80.839844 43.339844 L 78.90625 46.875 L 76.972656 43.339844 L 73.4375 41.40625 L 76.972656 39.472656 Z M 74.222656 73.4375 L 75.589844 75.953125 L 78.125 77.347656 L 75.589844 78.714844 L 74.222656 81.25 L 72.828125 78.714844 L 70.3125 77.347656 L 72.828125 75.953125 Z M 19.527344 54.6875 L 20.355469 56.191406 L 21.859375 57.027344 L 20.355469 57.855469 L 19.527344 59.375 L 18.691406 57.855469 L 17.1875 57.027344 L 18.691406 56.191406 Z M 19.527344 54.6875 "/>
</g>
</svg>
