<svg width="12" height="14" viewBox="0 0 12 14" fill="none" xmlns="http://www.w3.org/2000/svg">
<g opacity="0.3">
<path d="M5.8877 6.84692C4.33114 6.84692 3.06918 5.3142 3.06918 3.42348C3.06918 1.53272 3.4835 0 5.8877 0C8.2919 0 8.7063 1.53272 8.7063 3.42348C8.7063 5.3142 7.44434 6.84692 5.8877 6.84692Z" fill="#333333"/>
<path d="M11.2109 12.0741C11.2118 11.9589 11.2127 12.0417 11.2109 12.0741V12.0741Z" fill="#333333"/>
<path d="M0.564392 12.1642C0.562877 12.1326 0.563874 11.9452 0.564392 12.1642V12.1642Z" fill="#333333"/>
<path d="M0.569796 11.9359C0.621996 8.64222 1.05216 7.7037 4.34388 7.10962C4.34388 7.10962 4.80724 7.70006 5.88724 7.70006C6.96724 7.70006 7.43068 7.10962 7.43068 7.10962C10.6865 7.69722 11.1428 8.62182 11.2028 11.8289C11.2077 12.0908 11.21 12.1045 11.2109 12.0741C11.2107 12.1311 11.2104 12.2365 11.2104 12.4202C11.2104 12.4202 10.4268 14 5.88724 14C1.3478 14 0.564036 12.4202 0.564036 12.4202C0.564036 12.3021 0.563956 12.2201 0.563836 12.1642C0.564716 12.183 0.566476 12.1466 0.569796 11.9359Z" fill="#333333"/>
</g>
</svg>
